Coordinates
version=1
nRows=7
nColumns=38
inDegrees=yes

Units are S.I. units (second, meters, Newtons, ...)
Angles are in degrees.

endheader
time	pelvis_tilt	pelvis_list	pelvis_rotation	pelvis_tx	pelvis_ty	pelvis_tz	hip_flexion_r	hip_adduction_r	hip_rotation_r	knee_angle_r	ankle_angle_r	subtalar_angle_r	mtp_angle_r	hip_flexion_l	hip_adduction_l	hip_rotation_l	knee_angle_l	ankle_angle_l	subtalar_angle_l	mtp_angle_l	lumbar_extension	lumbar_bending	lumbar_rotation	arm_flex_r	arm_add_r	arm_rot_r	elbow_flex_r	pro_sup_r	wrist_flex_r	wrist_dev_r	arm_flex_l	arm_add_l	arm_rot_l	elbow_flex_l	pro_sup_l	wrist_flex_l	wrist_dev_l
      1.96500000	      0.87385433	     -5.73241102	     85.59500089	     -0.18574841	      1.08113511	     -0.48219524	     -1.18635191	      3.25721903	      7.89655783	    -71.26115866	     -6.50348970	      0.00000000	      0.00000000	     28.76426276	      0.27745217	     -0.86701737	    -21.84786737	      0.97312851	      0.00000000	      0.00000000	    -16.67973064	     -7.29665721	     12.90695251	      0.00000000	      0.00000000	      0.00000000	     90.00000000	     90.00000000	      0.00000000	      0.00000000	      0.00000000	      0.00000000	      0.00000000	     90.00000000	     90.00000000	      0.00000000	      0.00000000
      1.97000000	      0.46126664	     -5.64765119	     85.59351044	     -0.18608850	      1.07745065	     -0.48147958	     -0.16224062	      2.55875542	      7.44421115	    -73.90042065	     -6.12671802	      0.00000000	      0.00000000	     29.13672566	      0.88464785	     -1.12937046	    -24.27316376	      1.66469084	      0.00000000	      0.00000000	    -16.82069967	     -7.73526113	     12.14446546	      0.00000000	      0.00000000	      0.00000000	     90.00000000	     90.00000000	      0.00000000	      0.00000000	      0.00000000	      0.00000000	      0.00000000	     90.00000000	     90.00000000	      0.00000000	      0.00000000
      1.97500000	      0.01488064	     -5.54827622	     85.58888394	     -0.18647548	      1.07396371	     -0.48067341	      0.87799584	      1.78800710	      7.01319258	    -76.44777969	     -5.70941913	      0.00000000	      0.00000000	     29.53140676	      1.52289291	     -1.37766756	    -26.77984663	      2.58114486	      0.00000000	      0.00000000	    -16.97918702	     -8.19998895	     11.37507572	      0.00000000	      0.00000000	      0.00000000	     90.00000000	     90.00000000	      0.00000000	      0.00000000	      0.00000000	      0.00000000	      0.00000000	     90.00000000	     90.00000000	      0.00000000	      0.00000000
      1.98000000	     -0.46229327	     -5.43358393	     85.57717062	     -0.18690027	      1.07062077	     -0.47984542	      1.93465013	      0.95510739	      6.61671415	    -78.90023219	     -5.24922694	      0.00000000	      0.00000000	     29.92353363	      2.18214351	     -1.60951050	    -29.29443475	      3.70184377	      0.00000000	      0.00000000	    -17.15706583	     -8.69056605	     10.60999408	      0.00000000	      0.00000000	      0.00000000	     90.00000000	     90.00000000	      0.00000000	      0.00000000	      0.00000000	      0.00000000	      0.00000000	     90.00000000	     90.00000000	      0.00000000	      0.00000000
      1.98500000	     -0.96655926	     -5.30811221	     85.55536836	     -0.18736498	      1.06734596	     -0.47902482	      3.01168315	      0.07209015	      6.26654038	    -81.25507940	     -4.74849373	      0.00000000	      0.00000000	     30.27996060	      2.85344392	     -1.82575728	    -31.73994425	      4.99241346	      0.00000000	      0.00000000	    -17.35318417	     -9.20528344	      9.85862908	      0.00000000	      0.00000000	      0.00000000	     90.00000000	     90.00000000	      0.00000000	      0.00000000	      0.00000000	      0.00000000	      0.00000000	     90.00000000	     90.00000000	      0.00000000	      0.00000000
      1.99000000	     -1.49357829	     -5.18021663	     85.52177419	     -0.18788023	      1.06408657	     -0.47819129	      4.11626317	     -0.84729716	      5.97243689	    -83.50888307	     -4.21344044	      0.00000000	      0.00000000	     30.56241461	      3.52980977	     -2.03030228	    -34.04185477	      6.40953965	      0.00000000	      0.00000000	    -17.56374876	     -9.74088036	      9.12794148	      0.00000000	      0.00000000	      0.00000000	     90.00000000	     90.00000000	      0.00000000	      0.00000000	      0.00000000	      0.00000000	      0.00000000	     90.00000000	     90.00000000	      0.00000000	      0.00000000
      1.99500000	     -2.03835476	     -5.05904552	     85.47587390	     -0.18845522	      1.06083861	     -0.47729881	      5.25745787	     -1.78806214	      5.74159356	    -85.65665776	     -3.65316090	      0.00000000	      0.00000000	     30.73284337	      4.20664130	     -2.22907018	    -36.13390034	      7.90595852	      0.00000000	      0.00000000	    -17.78301238	    -10.29259990	      8.42196651	      0.00000000	      0.00000000	      0.00000000	     90.00000000	     90.00000000	      0.00000000	      0.00000000	      0.00000000	      0.00000000	      0.00000000	     90.00000000	     90.00000000	      0.00000000	      0.00000000
